<svg width="12" height="18" viewBox="0 0 12 18" fill="none" xmlns="http://www.w3.org/2000/svg">
<path d="M6 9C7.38071 9 8.5 7.88071 8.5 6.5C8.5 5.11929 7.38071 4 6 4C4.61929 4 3.5 5.11929 3.5 6.5C3.5 7.88071 4.61929 9 6 9Z" stroke="#A1AACE" stroke-width="1.5" stroke-linecap="round" stroke-linejoin="round"/>
<path d="M6 1.5V1.5C8.76143 1.5 11 3.73857 11 6.5C11 8.77134 7.61734 14.4667 6.41667 16.2767V16.2767C6.26403 16.5068 5.95374 16.5696 5.72362 16.417C5.66796 16.38 5.62026 16.3323 5.58334 16.2767C4.38267 14.4667 1 8.77134 1 6.5V6.5C1 3.73858 3.23857 1.5 6 1.5L6 1.5Z" stroke="#A1AACE" stroke-width="1.5" stroke-linecap="round" stroke-linejoin="round"/>
</svg>
